HIERARCHY
ROOT Pelvis
{
	OFFSET 0.000000 0.941512 0.000000
	CHANNELS 6 Xposition Yposition Zposition Zrotation Yrotation Xrotation 
	JOINT Pelvis_L_Hip
	{
		OFFSET 0.000000 0.000000 0.000000
		CHANNELS 3 Zrotation Yrotation Xrotation
		JOINT L_Hip
		{
			OFFSET 0.062321 -0.080322 -0.016990
			CHANNELS 3 Zrotation Yrotation Xrotation
			JOINT L_Knee
			{
				OFFSET 0.093051 -0.381305 -0.029784
				CHANNELS 3 Zrotation Yrotation Xrotation
				JOINT L_Ankle
				{
					OFFSET -0.010371 -0.431000 -0.033614
					CHANNELS 3 Zrotation Yrotation Xrotation
					End Site #name: L_Foot
					{
						OFFSET 0.069299 -0.038670 0.119418
					}
				}
			}
		}
	}
	JOINT Pelvis_R_Hip
	{
		OFFSET 0.000000 0.000000 0.000000
		CHANNELS 3 Zrotation Yrotation Xrotation
		JOINT R_Hip
		{
			OFFSET -0.055334 -0.094904 -0.002373
			CHANNELS 3 Zrotation Yrotation Xrotation
			JOINT R_Knee
			{
				OFFSET -0.064207 -0.384370 -0.019592
				CHANNELS 3 Zrotation Yrotation Xrotation
				JOINT R_Ankle
				{
					OFFSET 0.025418 -0.419734 -0.065953
					CHANNELS 3 Zrotation Yrotation Xrotation
					End Site #name: R_Foot
					{
						OFFSET -0.057233 -0.039888 0.132134
					}
				}
			}
		}
	}
	JOINT Pelvis_Spine1
	{
		OFFSET 0.000000 0.000000 0.000000
		CHANNELS 3 Zrotation Yrotation Xrotation
		JOINT Spine1
		{
			OFFSET -0.005562 0.124093 -0.043360
			CHANNELS 3 Zrotation Yrotation Xrotation
			JOINT Spine2
			{
				OFFSET 0.012244 0.139499 0.029894
				CHANNELS 3 Zrotation Yrotation Xrotation
				JOINT Spine3
				{
					OFFSET -0.002556 0.056561 0.009225
					CHANNELS 3 Zrotation Yrotation Xrotation
					JOINT Spine3_Neck
					{
						OFFSET 0.000000 0.000000 0.000000
						CHANNELS 3 Zrotation Yrotation Xrotation
						JOINT Neck
						{
							OFFSET -0.005205 0.217920 -0.024551
							CHANNELS 3 Zrotation Yrotation Xrotation
							End Site #name: Head
							{
								OFFSET 0.002365 0.091850 0.046637
							}
						}
					}
					JOINT Spine3_L_Collar
					{
						OFFSET 0.000000 0.000000 0.000000
						CHANNELS 3 Zrotation Yrotation Xrotation
						JOINT L_Collar
						{
							OFFSET 0.072225 0.116603 -0.009480
							CHANNELS 3 Zrotation Yrotation Xrotation
							JOINT L_Shoulder
							{
								OFFSET 0.115937 -0.058643 -0.021018
								CHANNELS 3 Zrotation Yrotation Xrotation
								JOINT L_Elbow
								{
									OFFSET 0.021994 -0.254722 -0.024492
									CHANNELS 3 Zrotation Yrotation Xrotation
									End Site #name: L_Wrist
									{
										OFFSET 0.048810 -0.240214 0.103329
									}
								}
							}
						}
					}
					JOINT Spine3_R_Collar
					{
						OFFSET 0.000000 0.000000 0.000000
						CHANNELS 3 Zrotation Yrotation Xrotation
						JOINT R_Collar
						{
							OFFSET -0.073372 0.120704 -0.024611
							CHANNELS 3 Zrotation Yrotation Xrotation
							JOINT R_Shoulder
							{
								OFFSET -0.108089 -0.054969 -0.020504
								CHANNELS 3 Zrotation Yrotation Xrotation
								JOINT R_Elbow
								{
									OFFSET -0.033684 -0.260739 0.009889
									CHANNELS 3 Zrotation Yrotation Xrotation
									End Site #name: R_Wrist
									{
										OFFSET -0.067980 -0.232763 0.118463
									}
								}
							}
						}
					}
				}
			}
		}
	}
}
MOTION
Frames: 8
Frame Time: 0.041667
-0.002943 0.962159 0.007601 -2.084244 -4.958992 -0.324723 0.000000 0.000000 0.000000 -2.285747 -0.706259 -3.288853 -1.923062 0.134622 6.068802 -3.709471 -4.229167 4.055928 0.000000 0.000000 0.000000 2.174521 0.316932 -2.352409 2.275765 -0.293611 1.144129 2.664157 -4.756549 9.533865 0.000000 0.000000 0.000000 5.365022 -1.219798 0.496012 -2.434117 -0.166879 -9.090533 1.980677 3.268439 4.078521 0.000000 0.000000 0.000000 -13.414687 8.196556 9.608385 0.000000 0.000000 0.000000 37.132879 -10.189693 -2.217856 14.863596 1.848717 -64.775952 35.338795 30.409077 -66.012638 0.000000 0.000000 0.000000 -30.086871 14.026294 -5.993396 22.210517 -2.165217 8.663770 10.756716 10.422857 -10.806294 
-0.003910 0.962215 0.008164 -2.089351 -5.123778 -0.339981 0.000000 0.000000 0.000000 -2.252734 -0.678023 -3.174241 -1.895724 0.132048 5.965513 -3.705993 -4.138572 4.108529 0.000000 0.000000 0.000000 2.246353 0.308171 -2.320048 2.225641 -0.285263 1.137913 2.727854 -4.610724 9.527265 0.000000 0.000000 0.000000 5.312154 -1.226421 0.638087 -2.324472 -0.181370 -9.211126 2.027926 3.030930 4.085350 0.000000 0.000000 0.000000 -13.548494 8.318674 9.701349 0.000000 0.000000 0.000000 37.966840 -10.353612 -2.405585 16.285153 2.555710 -64.747606 37.588735 32.581957 -64.103399 0.000000 0.000000 0.000000 -30.293265 14.022366 -5.907717 22.252746 -2.076748 8.387766 10.748421 10.362455 -10.693727 
-0.004760 0.962271 0.008882 -2.087244 -5.261683 -0.291133 0.000000 0.000000 0.000000 -2.236078 -0.654646 -3.081699 -1.854242 0.127664 5.782763 -3.748379 -4.037950 4.243879 0.000000 0.000000 0.000000 2.311682 0.310312 -2.345880 2.172533 -0.277349 1.114738 2.808016 -4.469143 9.563993 0.000000 0.000000 0.000000 5.246721 -1.221464 0.708506 -2.233485 -0.191815 -9.290116 2.029594 2.811386 4.125618 0.000000 0.000000 0.000000 -13.557552 8.349814 9.714594 0.000000 0.000000 0.000000 38.632971 -10.433625 -2.517065 17.404883 3.135207 -64.984612 39.144906 34.156264 -63.168503 0.000000 0.000000 0.000000 -30.407554 13.942022 -5.761505 22.264448 -1.979439 8.083277 10.719295 10.279692 -10.553725 
-0.005553 0.962342 0.009664 -2.087347 -5.374154 -0.189319 0.000000 0.000000 0.000000 -2.205425 -0.642644 -3.030857 -1.840809 0.127117 5.588954 -3.782793 -3.933161 4.367882 0.000000 0.000000 0.000000 2.373188 0.317770 -2.400266 2.131836 -0.273334 1.051114 2.887526 -4.340002 9.612934 0.000000 0.000000 0.000000 5.164773 -1.205244 0.716176 -2.188856 -0.197125 -9.340740 2.024806 2.678046 4.126036 0.000000 0.000000 0.000000 -13.516734 8.345992 9.764296 0.000000 0.000000 0.000000 39.120260 -10.471978 -2.574171 18.020305 3.469088 -65.265477 39.644409 34.859098 -63.376425 0.000000 0.000000 0.000000 -30.490208 13.883714 -5.656636 22.281097 -1.953077 7.997642 10.700491 10.225493 -10.467738 
-0.006256 0.962392 0.010314 -2.105537 -5.422180 -0.074607 0.000000 0.000000 0.000000 -2.145130 -0.647769 -3.040999 -1.849299 0.128955 5.469408 -3.797643 -3.874448 4.429617 0.000000 0.000000 0.000000 2.443505 0.325293 -2.455531 2.108379 -0.272407 0.985513 2.924982 -4.276096 9.633699 0.000000 0.000000 0.000000 5.104348 -1.194645 0.729198 -2.178102 -0.200335 -9.394828 2.000881 2.620605 4.076446 0.000000 0.000000 0.000000 -13.536789 8.368995 9.800344 0.000000 0.000000 0.000000 39.407045 -10.480392 -2.583489 18.251838 3.588476 -65.344411 39.396088 34.936680 -64.266138 0.000000 0.000000 0.000000 -30.558264 13.832138 -5.583125 22.334825 -1.994925 8.118896 10.669742 10.186986 -10.430389 
-0.006750 0.962426 0.010741 -2.125619 -5.390632 0.027859 0.000000 0.000000 0.000000 -2.086458 -0.664152 -3.094757 -1.861288 0.130605 5.417097 -3.813100 -3.880333 4.451405 0.000000 0.000000 0.000000 2.504158 0.330915 -2.497376 2.090584 -0.272575 0.921849 2.922337 -4.287823 9.641742 0.000000 0.000000 0.000000 5.063872 -1.192084 0.771088 -2.193581 -0.204908 -9.496400 1.974986 2.603913 4.050676 0.000000 0.000000 0.000000 -13.577022 8.400676 9.851422 0.000000 0.000000 0.000000 39.521061 -10.465927 -2.554757 18.311099 3.618983 -65.357649 39.030772 34.801742 -65.013994 0.000000 0.000000 0.000000 -30.620331 13.768759 -5.519792 22.406970 -2.054070 8.287643 10.649054 10.123070 -10.318661 
-0.007013 0.962459 0.010910 -2.139567 -5.321403 0.106674 0.000000 0.000000 0.000000 -2.046792 -0.681621 -3.156446 -1.859851 0.130191 5.377586 -3.847211 -3.921093 4.482806 0.000000 0.000000 0.000000 2.552407 0.333620 -2.520559 2.067706 -0.272857 0.841405 2.910868 -4.335944 9.666608 0.000000 0.000000 0.000000 5.002827 -1.184530 0.811469 -2.205318 -0.209839 -9.591863 1.986761 2.601278 4.075984 0.000000 0.000000 0.000000 -13.619574 8.428836 9.875650 0.000000 0.000000 0.000000 39.565917 -10.480101 -2.553411 18.360050 3.649405 -65.380188 38.853209 34.701903 -65.285062 0.000000 0.000000 0.000000 -30.676573 13.735041 -5.493447 22.412939 -2.089789 8.389978 10.668372 10.033518 -10.098628 
-0.007147 0.962519 0.010875 -2.150136 -5.261735 0.163173 0.000000 0.000000 0.000000 -2.024827 -0.695505 -3.207323 -1.849881 0.128702 5.343055 -3.882676 -3.955787 4.520335 0.000000 0.000000 0.000000 2.585460 0.339287 -2.556118 2.052176 -0.272329 0.803643 2.900117 -4.381415 9.689676 0.000000 0.000000 0.000000 4.936849 -1.175767 0.853305 -2.202034 -0.213973 -9.653945 2.004236 2.601621 4.106284 0.000000 0.000000 0.000000 -13.693805 8.462995 9.801805 0.000000 0.000000 0.000000 39.626086 -10.521520 -2.580702 18.435139 3.693754 -65.391443 38.808710 34.681452 -65.313002 0.000000 0.000000 0.000000 -30.711351 13.732481 -5.498298 22.390636 -2.099021 8.419072 10.674435 9.960580 -9.936969 
